<svg width="48" height="48" viewBox="0 0 48 48" fill="none" xmlns="http://www.w3.org/2000/svg">
<g clip-path="url(#clip0_1283_141)">
<path d="M31.875 22.875H25.125V16.125C25.125 15.5037 24.6213 15 24 15C23.3787 15 22.875 15.5037 22.875 16.125V22.875H16.125C15.5037 22.875 15 23.3787 15 24C15 24.6213 15.5037 25.125 16.125 25.125H22.875V31.875C22.875 32.4963 23.3787 33 24 33C24.6213 33 25.125 32.4963 25.125 31.875V25.125H31.875C32.4963 25.125 33 24.6213 33 24C33 23.3787 32.4963 22.875 31.875 22.875Z" fill="white"/>
</g>
<defs>
<clipPath id="clip0_1283_141">
<rect width="18" height="18" fill="white" transform="translate(15 15)"/>
</clipPath>
</defs>
</svg>
