<svg width="48" height="48" viewBox="0 0 48 48" fill="none" xmlns="http://www.w3.org/2000/svg">
<path d="M25 32C26.3256 31.9984 27.5964 31.4711 28.5338 30.5338C29.4711 29.5964 29.9984 28.3256 30 27V18.243C30.0016 17.7174 29.8988 17.1967 29.6976 16.711C29.4964 16.2254 29.2008 15.7846 28.828 15.414L26.586 13.172C26.2155 12.7992 25.7746 12.5036 25.289 12.3024C24.8034 12.1013 24.2826 11.9985 23.757 12H19C17.6744 12.0016 16.4036 12.5289 15.4662 13.4662C14.5289 14.4036 14.0016 15.6744 14 17V27C14.0016 28.3256 14.5289 29.5964 15.4662 30.5338C16.4036 31.4711 17.6744 31.9984 19 32H25ZM16 27V17C16 16.2044 16.3161 15.4413 16.8787 14.8787C17.4413 14.3161 18.2044 14 19 14C19 14 23.919 14.014 24 14.024V16C24 16.5304 24.2107 17.0392 24.5858 17.4142C24.9609 17.7893 25.4696 18 26 18H27.976C27.986 18.081 28 27 28 27C28 27.7957 27.6839 28.5587 27.1213 29.1213C26.5587 29.6839 25.7956 30 25 30H19C18.2044 30 17.4413 29.6839 16.8787 29.1213C16.3161 28.5587 16 27.7957 16 27ZM34 20V31C33.9984 32.3256 33.4711 33.5964 32.5338 34.5338C31.5964 35.4711 30.3256 35.9984 29 36H20C19.7348 36 19.4804 35.8946 19.2929 35.7071C19.1054 35.5196 19 35.2652 19 35C19 34.7348 19.1054 34.4804 19.2929 34.2929C19.4804 34.1054 19.7348 34 20 34H29C29.7956 34 30.5587 33.6839 31.1213 33.1213C31.6839 32.5587 32 31.7957 32 31V20C32 19.7348 32.1054 19.4804 32.2929 19.2929C32.4804 19.1054 32.7348 19 33 19C33.2652 19 33.5196 19.1054 33.7071 19.2929C33.8946 19.4804 34 19.7348 34 20Z" fill="white"/>
</svg>
