<svg width="40" height="40" viewBox="0 0 40 40" fill="none" xmlns="http://www.w3.org/2000/svg">
<g clip-path="url(#clip0_1283_218)">
<path d="M21.375 27.5C22.5349 27.4986 23.6469 27.0372 24.4671 26.2171C25.2872 25.3969 25.7486 24.2849 25.75 23.125V15.4626C25.7514 15.0027 25.6614 14.5471 25.4854 14.1222C25.3093 13.6972 25.0507 13.3115 24.7245 12.9873L22.7628 11.0255C22.4385 10.6993 22.0528 10.4407 21.6279 10.2646C21.2029 10.0886 20.7473 9.99865 20.2874 10H16.125C14.9651 10.0014 13.8531 10.4628 13.0329 11.283C12.2128 12.1031 11.7514 13.2151 11.75 14.375V23.125C11.7514 24.2849 12.2128 25.3969 13.0329 26.2171C13.8531 27.0372 14.9651 27.4986 16.125 27.5H21.375ZM13.5 23.125V14.375C13.5 13.6788 13.7766 13.0111 14.2688 12.5189C14.7611 12.0266 15.4288 11.75 16.125 11.75C16.125 11.75 20.4291 11.7623 20.5 11.771V13.5C20.5 13.9641 20.6844 14.4093 21.0126 14.7375C21.3408 15.0656 21.7859 15.25 22.25 15.25H23.979C23.9877 15.3209 24 23.125 24 23.125C24 23.8212 23.7234 24.4889 23.2312 24.9812C22.7389 25.4735 22.0712 25.75 21.375 25.75H16.125C15.4288 25.75 14.7611 25.4735 14.2688 24.9812C13.7766 24.4889 13.5 23.8212 13.5 23.125ZM29.25 17V26.625C29.2486 27.7849 28.7872 28.8969 27.9671 29.7171C27.1469 30.5372 26.0349 30.9986 24.875 31H17C16.7679 31 16.5454 30.9078 16.3813 30.7437C16.2172 30.5796 16.125 30.3571 16.125 30.125C16.125 29.893 16.2172 29.6704 16.3813 29.5063C16.5454 29.3422 16.7679 29.25 17 29.25H24.875C25.5712 29.25 26.2389 28.9735 26.7312 28.4812C27.2234 27.9889 27.5 27.3212 27.5 26.625V17C27.5 16.768 27.5922 16.5454 27.7563 16.3813C27.9204 16.2172 28.1429 16.125 28.375 16.125C28.6071 16.125 28.8296 16.2172 28.9937 16.3813C29.1578 16.5454 29.25 16.768 29.25 17Z" fill="black"/>
</g>
<defs>
<clipPath id="clip0_1283_218">
<rect width="21" height="21" fill="white" transform="translate(10 10)"/>
</clipPath>
</defs>
</svg>
