<svg width="48" height="48" viewBox="0 0 48 48" fill="none" xmlns="http://www.w3.org/2000/svg">
<g clip-path="url(#clip0_1283_194)">
<path d="M28 20C27.8124 19.8125 27.5581 19.7072 27.293 19.7072C27.0278 19.7072 26.7735 19.8125 26.586 20L23.9999 22.586L21.4139 20C21.2253 19.8178 20.9727 19.717 20.7105 19.7193C20.4484 19.7216 20.1975 19.8268 20.0121 20.0122C19.8267 20.1976 19.7216 20.4484 19.7193 20.7106C19.717 20.9728 19.8178 21.2254 20 21.414L22.586 24L20 26.586C19.8178 26.7746 19.717 27.0272 19.7193 27.2894C19.7216 27.5516 19.8267 27.8024 20.0121 27.9878C20.1975 28.1732 20.4484 28.2784 20.7105 28.2807C20.9727 28.283 21.2253 28.1822 21.4139 28L23.9999 25.414L26.586 28C26.7746 28.1822 27.0272 28.283 27.2894 28.2807C27.5515 28.2784 27.8024 28.1732 27.9878 27.9878C28.1732 27.8024 28.2783 27.5516 28.2806 27.2894C28.2829 27.0272 28.1821 26.7746 28 26.586L25.4139 24L28 21.414C28.1874 21.2265 28.2927 20.9722 28.2927 20.707C28.2927 20.4418 28.1874 20.1875 28 20Z" fill="black"/>
<path d="M24 12C21.6266 12 19.3066 12.7038 17.3332 14.0224C15.3598 15.3409 13.8217 17.2151 12.9135 19.4078C12.0052 21.6005 11.7676 24.0133 12.2306 26.3411C12.6936 28.6689 13.8365 30.8071 15.5147 32.4853C17.193 34.1635 19.3312 35.3064 21.6589 35.7694C23.9867 36.2324 26.3995 35.9948 28.5922 35.0866C30.7849 34.1783 32.6591 32.6402 33.9776 30.6668C35.2962 28.6935 36 26.3734 36 24C35.9966 20.8185 34.7312 17.7682 32.4815 15.5185C30.2318 13.2688 27.1815 12.0034 24 12ZM24 34C22.0222 34 20.0888 33.4135 18.4443 32.3147C16.7998 31.2159 15.5181 29.6541 14.7612 27.8268C14.0043 25.9996 13.8063 23.9889 14.1922 22.0491C14.578 20.1093 15.5304 18.3275 16.9289 16.9289C18.3275 15.5304 20.1093 14.578 22.0491 14.1921C23.9889 13.8063 25.9996 14.0043 27.8268 14.7612C29.6541 15.5181 31.2159 16.7998 32.3147 18.4443C33.4135 20.0888 34 22.0222 34 24C33.9971 26.6513 32.9426 29.1931 31.0679 31.0679C29.1931 32.9426 26.6513 33.9971 24 34Z" fill="black"/>
</g>
<defs>
<clipPath id="clip0_1283_194">
<rect width="24" height="24" fill="white" transform="translate(12 12)"/>
</clipPath>
</defs>
</svg>
