<svg width="48" height="48" viewBox="0 0 48 48" fill="none" xmlns="http://www.w3.org/2000/svg">
<g clip-path="url(#clip0_1296_41)">
<path d="M30.656 12.93L18.464 25.122C17.9984 25.5851 17.6292 26.136 17.3779 26.7428C17.1266 27.3496 16.9982 28.0002 17 28.6569V30C17 30.2652 17.1054 30.5195 17.2929 30.7071C17.4804 30.8946 17.7348 31 18 31H19.343C19.9998 31.0018 20.6504 30.8734 21.2572 30.6221C21.864 30.3708 22.4149 30.0016 22.878 29.5359L35.07 17.3439C35.6544 16.7581 35.9826 15.9644 35.9826 15.137C35.9826 14.3095 35.6544 13.5158 35.07 12.93C34.4757 12.3618 33.6852 12.0448 32.863 12.0448C32.0408 12.0448 31.2503 12.3618 30.656 12.93ZM33.656 15.93L21.464 28.122C20.9001 28.6824 20.138 28.9979 19.343 29H19V28.6569C19.0021 27.8619 19.3176 27.0998 19.878 26.536L32.07 14.344C32.2836 14.1399 32.5676 14.026 32.863 14.026C33.1584 14.026 33.4424 14.1399 33.656 14.344C33.866 14.5545 33.9839 14.8396 33.9839 15.137C33.9839 15.4343 33.866 15.7194 33.656 15.93Z" fill="white"/>
<path d="M35 20.979C34.7348 20.979 34.4804 21.0844 34.2929 21.2719C34.1054 21.4594 34 21.7138 34 21.979V27H30C29.2044 27 28.4413 27.3161 27.8787 27.8787C27.3161 28.4413 27 29.2044 27 30V34H17C16.2044 34 15.4413 33.6839 14.8787 33.1213C14.3161 32.5587 14 31.7956 14 31V17C14 16.2044 14.3161 15.4413 14.8787 14.8787C15.4413 14.3161 16.2044 14 17 14H26.042C26.3072 14 26.5616 13.8946 26.7491 13.7071C26.9366 13.5196 27.042 13.2652 27.042 13C27.042 12.7348 26.9366 12.4804 26.7491 12.2929C26.5616 12.1054 26.3072 12 26.042 12H17C15.6744 12.0016 14.4036 12.5289 13.4662 13.4662C12.5289 14.4036 12.0016 15.6744 12 17L12 31C12.0016 32.3256 12.5289 33.5964 13.4662 34.5338C14.4036 35.4711 15.6744 35.9984 17 36H28.343C28.9999 36.0019 29.6507 35.8735 30.2576 35.6222C30.8646 35.3709 31.4157 35.0017 31.879 34.536L34.535 31.878C35.0008 31.4149 35.37 30.864 35.6215 30.2572C35.873 29.6504 36.0016 28.9998 36 28.343V21.979C36 21.7138 35.8946 21.4594 35.7071 21.2719C35.5196 21.0844 35.2652 20.979 35 20.979ZM30.465 33.122C30.063 33.523 29.5547 33.8006 29 33.922V30C29 29.7348 29.1054 29.4804 29.2929 29.2929C29.4804 29.1054 29.7348 29 30 29H33.925C33.8013 29.5535 33.524 30.0609 33.125 30.464L30.465 33.122Z" fill="white"/>
</g>
<defs>
<clipPath id="clip0_1296_41">
<rect width="24" height="24" fill="white" transform="translate(12 12)"/>
</clipPath>
</defs>
</svg>
