<svg width="40" height="40" viewBox="0 0 40 40" fill="none" xmlns="http://www.w3.org/2000/svg">
<g clip-path="url(#clip0_1283_206)">
<path d="M26.324 10.8137L15.656 21.4817C15.2486 21.8869 14.9255 22.369 14.7057 22.8999C14.4858 23.4309 14.3734 24.0001 14.375 24.5748V25.7499C14.375 25.982 14.4672 26.2046 14.6313 26.3687C14.7954 26.5328 15.018 26.6249 15.25 26.6249H16.4251C16.9998 26.6266 17.5691 26.5142 18.1 26.2943C18.631 26.0744 19.113 25.7514 19.5183 25.3439L30.1863 14.6759C30.6976 14.1633 30.9848 13.4689 30.9848 12.7448C30.9848 12.0208 30.6976 11.3263 30.1863 10.8137C29.6662 10.3166 28.9745 10.0392 28.2551 10.0392C27.5357 10.0392 26.8441 10.3166 26.324 10.8137ZM28.949 13.4387L18.281 24.1067C17.7876 24.5971 17.1208 24.8731 16.4251 24.8749H16.125V24.5748C16.1268 23.8792 16.4029 23.2123 16.8933 22.7189L27.5613 12.0509C27.7482 11.8724 27.9967 11.7728 28.2551 11.7728C28.5136 11.7728 28.7621 11.8724 28.949 12.0509C29.1327 12.2351 29.2359 12.4847 29.2359 12.7448C29.2359 13.005 29.1327 13.2545 28.949 13.4387Z" fill="black"/>
<path d="M30.125 17.8566C29.8929 17.8566 29.6704 17.9488 29.5063 18.1129C29.3422 18.277 29.25 18.4996 29.25 18.7316V23.125H25.75C25.0538 23.125 24.3861 23.4016 23.8938 23.8938C23.4016 24.3861 23.125 25.0538 23.125 25.75V29.25H14.375C13.6788 29.25 13.0111 28.9734 12.5188 28.4812C12.0266 27.9889 11.75 27.3212 11.75 26.625V14.375C11.75 13.6788 12.0266 13.0111 12.5188 12.5188C13.0111 12.0266 13.6788 11.75 14.375 11.75H22.2868C22.5188 11.75 22.7414 11.6578 22.9055 11.4937C23.0696 11.3296 23.1618 11.1071 23.1618 10.875C23.1618 10.6429 23.0696 10.4204 22.9055 10.2563C22.7414 10.0922 22.5188 10 22.2868 10H14.375C13.2151 10.0014 12.1031 10.4628 11.2829 11.2829C10.4628 12.1031 10.0014 13.2151 10 14.375L10 26.625C10.0014 27.7849 10.4628 28.8969 11.2829 29.7171C12.1031 30.5372 13.2151 30.9986 14.375 31H24.3001C24.8749 31.0016 25.4443 30.8893 25.9754 30.6694C26.5065 30.4495 26.9887 30.1265 27.3941 29.719L29.7181 27.3932C30.1257 26.988 30.4488 26.506 30.6688 25.9751C30.8888 25.4441 31.0014 24.8748 31 24.3001V18.7316C31 18.4996 30.9078 18.277 30.7437 18.1129C30.5796 17.9488 30.3571 17.8566 30.125 17.8566ZM26.1569 28.4818C25.8051 28.8326 25.3603 29.0755 24.875 29.1818V25.75C24.875 25.5179 24.9672 25.2954 25.1313 25.1313C25.2954 24.9672 25.5179 24.875 25.75 24.875H29.1844C29.0761 25.3593 28.8335 25.8033 28.4844 26.156L26.1569 28.4818Z" fill="black"/>
</g>
<defs>
<clipPath id="clip0_1283_206">
<rect width="21" height="21" fill="white" transform="translate(10 10)"/>
</clipPath>
</defs>
</svg>
