<svg width="21" height="21" viewBox="0 0 21 21" fill="none" xmlns="http://www.w3.org/2000/svg">
<g clip-path="url(#clip0_636_171)">
<path d="M16.625 21H14.875C14.6429 21 14.4204 20.9078 14.2563 20.7437C14.0922 20.5796 14 20.3571 14 20.125C14 19.8929 14.0922 19.6704 14.2563 19.5063C14.4204 19.3422 14.6429 19.25 14.875 19.25H16.625C17.3212 19.25 17.9889 18.9734 18.4812 18.4812C18.9734 17.9889 19.25 17.3212 19.25 16.625V14.875C19.25 14.6429 19.3422 14.4204 19.5063 14.2563C19.6704 14.0922 19.8929 14 20.125 14C20.3571 14 20.5796 14.0922 20.7437 14.2563C20.9078 14.4204 21 14.6429 21 14.875V16.625C20.9986 17.7849 20.5372 18.8969 19.7171 19.7171C18.8969 20.5372 17.7849 20.9986 16.625 21Z" fill="white"/>
<path d="M0.875 7C0.642936 7 0.420376 6.90781 0.256282 6.74372C0.0921872 6.57962 0 6.35706 0 6.125V4.375C0.00138938 3.2151 0.462772 2.10311 1.28294 1.28294C2.10311 0.462772 3.2151 0.00138938 4.375 0L6.125 0C6.35706 0 6.57962 0.0921872 6.74372 0.256282C6.90781 0.420376 7 0.642936 7 0.875C7 1.10706 6.90781 1.32962 6.74372 1.49372C6.57962 1.65781 6.35706 1.75 6.125 1.75H4.375C3.67881 1.75 3.01113 2.02656 2.51884 2.51884C2.02656 3.01113 1.75 3.67881 1.75 4.375V6.125C1.75 6.35706 1.65781 6.57962 1.49372 6.74372C1.32962 6.90781 1.10706 7 0.875 7Z" fill="white"/>
<path d="M6.125 21H4.375C3.2151 20.9986 2.10311 20.5372 1.28294 19.7171C0.462772 18.8969 0.00138938 17.7849 0 16.625L0 14.875C0 14.6429 0.0921872 14.4204 0.256282 14.2563C0.420376 14.0922 0.642936 14 0.875 14C1.10706 14 1.32962 14.0922 1.49372 14.2563C1.65781 14.4204 1.75 14.6429 1.75 14.875V16.625C1.75 17.3212 2.02656 17.9889 2.51884 18.4812C3.01113 18.9734 3.67881 19.25 4.375 19.25H6.125C6.35706 19.25 6.57962 19.3422 6.74372 19.5063C6.90781 19.6704 7 19.8929 7 20.125C7 20.3571 6.90781 20.5796 6.74372 20.7437C6.57962 20.9078 6.35706 21 6.125 21Z" fill="white"/>
<path d="M20.125 7C19.8929 7 19.6704 6.90781 19.5063 6.74372C19.3422 6.57962 19.25 6.35706 19.25 6.125V4.375C19.25 3.67881 18.9734 3.01113 18.4812 2.51884C17.9889 2.02656 17.3212 1.75 16.625 1.75H14.875C14.6429 1.75 14.4204 1.65781 14.2563 1.49372C14.0922 1.32962 14 1.10706 14 0.875C14 0.642936 14.0922 0.420376 14.2563 0.256282C14.4204 0.0921872 14.6429 0 14.875 0L16.625 0C17.7849 0.00138938 18.8969 0.462772 19.7171 1.28294C20.5372 2.10311 20.9986 3.2151 21 4.375V6.125C21 6.35706 20.9078 6.57962 20.7437 6.74372C20.5796 6.90781 20.3571 7 20.125 7Z" fill="white"/>
</g>
<defs>
<clipPath id="clip0_636_171">
<rect width="21" height="21" fill="white"/>
</clipPath>
</defs>
</svg>
