<svg width="40" height="40" viewBox="0 0 40 40" fill="none" xmlns="http://www.w3.org/2000/svg">
<g clip-path="url(#clip0_1283_207)">
<path d="M26.625 31H24.875C24.6429 31 24.4204 30.9078 24.2563 30.7437C24.0922 30.5796 24 30.3571 24 30.125C24 29.8929 24.0922 29.6704 24.2563 29.5063C24.4204 29.3422 24.6429 29.25 24.875 29.25H26.625C27.3212 29.25 27.9889 28.9734 28.4812 28.4812C28.9734 27.9889 29.25 27.3212 29.25 26.625V24.875C29.25 24.6429 29.3422 24.4204 29.5063 24.2563C29.6704 24.0922 29.8929 24 30.125 24C30.3571 24 30.5796 24.0922 30.7437 24.2563C30.9078 24.4204 31 24.6429 31 24.875V26.625C30.9986 27.7849 30.5372 28.8969 29.7171 29.7171C28.8969 30.5372 27.7849 30.9986 26.625 31Z" fill="black"/>
<path d="M10.875 17C10.6429 17 10.4204 16.9078 10.2563 16.7437C10.0922 16.5796 10 16.3571 10 16.125V14.375C10.0014 13.2151 10.4628 12.1031 11.2829 11.2829C12.1031 10.4628 13.2151 10.0014 14.375 10H16.125C16.3571 10 16.5796 10.0922 16.7437 10.2563C16.9078 10.4204 17 10.6429 17 10.875C17 11.1071 16.9078 11.3296 16.7437 11.4937C16.5796 11.6578 16.3571 11.75 16.125 11.75H14.375C13.6788 11.75 13.0111 12.0266 12.5188 12.5188C12.0266 13.0111 11.75 13.6788 11.75 14.375V16.125C11.75 16.3571 11.6578 16.5796 11.4937 16.7437C11.3296 16.9078 11.1071 17 10.875 17Z" fill="black"/>
<path d="M16.125 31H14.375C13.2151 30.9986 12.1031 30.5372 11.2829 29.7171C10.4628 28.8969 10.0014 27.7849 10 26.625V24.875C10 24.6429 10.0922 24.4204 10.2563 24.2563C10.4204 24.0922 10.6429 24 10.875 24C11.1071 24 11.3296 24.0922 11.4937 24.2563C11.6578 24.4204 11.75 24.6429 11.75 24.875V26.625C11.75 27.3212 12.0266 27.9889 12.5188 28.4812C13.0111 28.9734 13.6788 29.25 14.375 29.25H16.125C16.3571 29.25 16.5796 29.3422 16.7437 29.5063C16.9078 29.6704 17 29.8929 17 30.125C17 30.3571 16.9078 30.5796 16.7437 30.7437C16.5796 30.9078 16.3571 31 16.125 31Z" fill="black"/>
<path d="M30.125 17C29.8929 17 29.6704 16.9078 29.5063 16.7437C29.3422 16.5796 29.25 16.3571 29.25 16.125V14.375C29.25 13.6788 28.9734 13.0111 28.4812 12.5188C27.9889 12.0266 27.3212 11.75 26.625 11.75H24.875C24.6429 11.75 24.4204 11.6578 24.2563 11.4937C24.0922 11.3296 24 11.1071 24 10.875C24 10.6429 24.0922 10.4204 24.2563 10.2563C24.4204 10.0922 24.6429 10 24.875 10H26.625C27.7849 10.0014 28.8969 10.4628 29.7171 11.2829C30.5372 12.1031 30.9986 13.2151 31 14.375V16.125C31 16.3571 30.9078 16.5796 30.7437 16.7437C30.5796 16.9078 30.3571 17 30.125 17Z" fill="black"/>
</g>
<defs>
<clipPath id="clip0_1283_207">
<rect width="21" height="21" fill="white" transform="translate(10 10)"/>
</clipPath>
</defs>
</svg>
