<svg width="48" height="48" viewBox="0 0 48 48" fill="none" xmlns="http://www.w3.org/2000/svg">
<path d="M29.4978 12C28.3722 12.0199 27.2711 12.3775 26.3058 13.0367C25.3405 13.6959 24.5451 14.6333 24 15.7543C23.4549 14.6333 22.6595 13.6959 21.6942 13.0367C20.7289 12.3775 19.6278 12.0199 18.5022 12C16.7079 12.0887 15.0173 12.9821 13.7999 14.4849C12.5825 15.9877 11.9371 17.9778 12.0048 20.0205C12.0048 25.1934 16.7889 30.843 20.8013 34.6735C21.6971 35.5303 22.8298 36 24 36C25.1702 36 26.3029 35.5303 27.1987 34.6735C31.2111 30.843 35.9952 25.1934 35.9952 20.0205C36.0629 17.9778 35.4175 15.9877 34.2001 14.4849C32.9827 12.9821 31.2921 12.0887 29.4978 12ZM25.9142 32.9329C25.3784 33.4464 24.7005 33.728 24 33.728C23.2995 33.728 22.6216 33.4464 22.0858 32.9329C16.9498 28.0284 14.004 23.3231 14.004 20.0205C13.9357 18.581 14.3703 17.1692 15.2129 16.0929C16.0556 15.0167 17.238 14.3633 18.5022 14.2753C19.7665 14.3633 20.9489 15.0167 21.7915 16.0929C22.6342 17.1692 23.0687 18.581 23.0004 20.0205C23.0004 20.3222 23.1057 20.6116 23.2932 20.8249C23.4806 21.0383 23.7349 21.1581 24 21.1581C24.2651 21.1581 24.5194 21.0383 24.7068 20.8249C24.8943 20.6116 24.9996 20.3222 24.9996 20.0205C24.9313 18.581 25.3658 17.1692 26.2085 16.0929C27.0511 15.0167 28.2335 14.3633 29.4978 14.2753C30.762 14.3633 31.9444 15.0167 32.7871 16.0929C33.6297 17.1692 34.0643 18.581 33.996 20.0205C33.996 23.3231 31.0502 28.0284 25.9142 32.9283V32.9329Z" fill="white"/>
</svg>
