<svg width="40" height="40" viewBox="0 0 40 40" fill="none" xmlns="http://www.w3.org/2000/svg">
<g clip-path="url(#clip0_1283_221)">
<path d="M25.3125 11.6774C24.3272 11.6927 23.3634 11.9677 22.5184 12.4747C21.6734 12.9817 20.9772 13.7027 20.5 14.5649C20.0228 13.7027 19.3265 12.9817 18.4815 12.4747C17.6366 11.9677 16.6728 11.6927 15.6875 11.6774C14.1168 11.7456 12.637 12.4327 11.5713 13.5886C10.5056 14.7444 9.94068 16.2751 9.99996 17.8461C9.99996 21.8247 14.1877 26.17 17.7 29.1161C18.4842 29.7751 19.4756 30.1364 20.5 30.1364C21.5243 30.1364 22.5158 29.7751 23.3 29.1161C26.8122 26.17 31 21.8247 31 17.8461C31.0592 16.2751 30.4943 14.7444 29.4287 13.5886C28.363 12.4327 26.8831 11.7456 25.3125 11.6774ZM22.1756 27.7774C21.7066 28.1723 21.1131 28.3889 20.5 28.3889C19.8868 28.3889 19.2934 28.1723 18.8243 27.7774C14.3286 24.0052 11.75 20.3862 11.75 17.8461C11.6901 16.739 12.0705 15.6531 12.8082 14.8254C13.5458 13.9976 14.5808 13.495 15.6875 13.4274C16.7941 13.495 17.8291 13.9976 18.5668 14.8254C19.3044 15.6531 19.6848 16.739 19.625 17.8461C19.625 18.0782 19.7172 18.3007 19.8812 18.4648C20.0453 18.6289 20.2679 18.7211 20.5 18.7211C20.732 18.7211 20.9546 18.6289 21.1187 18.4648C21.2828 18.3007 21.375 18.0782 21.375 17.8461C21.3151 16.739 21.6955 15.6531 22.4332 14.8254C23.1708 13.9976 24.2058 13.495 25.3125 13.4274C26.4191 13.495 27.4541 13.9976 28.1918 14.8254C28.9294 15.6531 29.3098 16.739 29.25 17.8461C29.25 20.3862 26.6713 24.0052 22.1756 27.7739V27.7774Z" fill="black"/>
</g>
<defs>
<clipPath id="clip0_1283_221">
<rect width="21" height="21" fill="white" transform="translate(10 10)"/>
</clipPath>
</defs>
</svg>
