<svg width="48" height="48" viewBox="0 0 48 48" fill="none" xmlns="http://www.w3.org/2000/svg">
<g clip-path="url(#clip0_1283_139)">
<path d="M29.5 13.917C28.3739 13.9345 27.2724 14.2489 26.3068 14.8283C25.3411 15.4077 24.5453 16.2317 24 17.217C23.4546 16.2317 22.6589 15.4077 21.6932 14.8283C20.7275 14.2489 19.626 13.9345 18.5 13.917C16.7049 13.995 15.0137 14.7803 13.7958 16.1012C12.5778 17.4222 11.9322 19.1715 12 20.967C12 25.514 16.786 30.48 20.8 33.847C21.6962 34.6001 22.8293 35.013 24 35.013C25.1706 35.013 26.3038 34.6001 27.2 33.847C31.214 30.48 36 25.514 36 20.967C36.0677 19.1715 35.4221 17.4222 34.2042 16.1012C32.9863 14.7803 31.295 13.995 29.5 13.917Z" fill="white"/>
</g>
<defs>
<clipPath id="clip0_1283_139">
<rect width="24" height="24" fill="white" transform="translate(12 12)"/>
</clipPath>
</defs>
</svg>
