<svg width="40" height="40" viewBox="0 0 40 40" fill="none" xmlns="http://www.w3.org/2000/svg">
<g clip-path="url(#clip0_1453_117)">
<path d="M25.3127 10.7573C24.3274 10.7733 23.3636 11.0615 22.5186 11.5926C21.6736 12.1237 20.9774 12.879 20.5002 13.7823C20.023 12.879 19.3268 12.1237 18.4818 11.5926C17.6368 11.0615 16.673 10.7733 15.6877 10.7573C14.117 10.8288 12.6372 11.5486 11.5715 12.7595C10.5058 13.9704 9.94093 15.5739 10.0002 17.2198C10.0002 21.3878 14.188 25.94 17.7002 29.0264C18.4844 29.7168 19.4759 30.0953 20.5002 30.0953C21.5245 30.0953 22.516 29.7168 23.3002 29.0264C26.8125 25.94 31.0002 21.3878 31.0002 17.2198C31.0595 15.5739 30.4946 13.9704 29.4289 12.7595C28.3632 11.5486 26.8834 10.8288 25.3127 10.7573Z" fill="#CE0000"/>
</g>
<defs>
<clipPath id="clip0_1453_117">
<rect width="21" height="22" fill="white" transform="translate(10 9)"/>
</clipPath>
</defs>
</svg>
