<svg width="330" height="362" viewBox="0 0 330 362" fill="none" xmlns="http://www.w3.org/2000/svg">
<path d="M115.17 122.61C122.66 109.52 132.98 102.34 146.03 100.68C154.23 99.6802 162.87 100.77 171.17 101.93C194.503 105.21 217.8 108.804 241.06 112.71C248.18 113.91 255.61 115.46 261.92 118.71C269.92 122.86 275.44 130.17 279.45 138.46C285.8 151.59 292.53 164.54 298.9 177.67C308.08 196.6 318.44 215.11 325.73 234.75C331.91 251.4 329.09 268.57 320.11 284.58C315.6 292.63 309.41 298.88 302.74 304.74C299.09 307.95 294.37 310.02 289.96 312.27C272.26 321.27 254.5 330.12 236.76 339.03C230.26 342.28 223.76 345.58 217.26 348.77C190.26 361.95 162.37 365.85 133.26 357.05C107.26 349.19 81.35 341.05 55.4 333.05C41.96 328.89 28.51 324.75 15.08 320.52C13.71 320.09 11.94 319.52 11.3 318.43C6.15002 309.8 0.67003 301.6 0.43003 290.65C0.13003 277.1 14.7 263.02 30.23 263.25C51.36 263.55 72.49 263.32 93.62 263.31C104.75 263.31 107.62 257.87 102.49 248.04C95.34 234.41 88.8 220.46 81.91 206.69C71.74 186.4 61.41 166.19 51.3 145.88C37.63 118.44 24.11 90.8802 10.5 63.4502C9.35171 61.0508 8.0766 58.7142 6.68003 56.4502C-2.85997 41.3402 -0.909985 23.7702 9.29002 12.1202C19.73 0.190248 37.52 -2.66977 50.86 5.85023C56.08 9.18023 60.45 12.9502 63.26 18.8502C70.82 34.8502 78.91 50.5802 86.93 66.3502C93.61 79.4802 100.55 92.4702 107.24 105.58C109.87 110.73 112.17 116.08 115.17 122.61ZM62.39 279.37V280.08C51.08 280.08 39.77 279.97 28.45 280.08C21.14 280.17 16.3 285.52 16.68 292.61C17.07 299.88 23.32 307.04 30.4 308.38C31.7054 308.637 32.9943 308.971 34.26 309.38C60.16 317.56 86.03 325.82 111.96 333.91C123.65 337.55 135.26 341.91 147.25 344.1C172.04 348.56 195.25 342.82 217.39 331.1C237.157 320.674 257.087 310.56 277.18 300.76C289.93 294.53 301.27 287.25 307.44 273.65C313.32 260.72 314.55 247.79 308.68 234.73C303.06 222.19 297.04 209.83 290.98 197.49C282.28 179.81 273.64 162.1 264.47 144.67C259.83 135.85 252.94 129.4 242.07 128.57C235.3 128.06 228.57 126.91 221.84 125.92C199.51 122.64 177.23 118.92 154.84 116.18C146.45 115.18 138.22 117.49 133.15 125.46C129.39 131.102 125.929 136.936 122.78 142.94C121.11 146.33 118.93 147.64 115.53 147.84C114.039 148.037 112.525 147.738 111.222 146.987C109.918 146.237 108.898 145.078 108.32 143.69C104.32 135.54 100.19 127.45 96.07 119.36C90.66 108.75 85.15 98.1902 79.79 87.5602C71.16 70.4303 62.65 53.2402 54.02 36.1002C51.64 31.3902 49.92 25.9202 46.35 22.3403C39.44 15.4202 29.79 15.8102 22.01 21.9902C16.45 26.4102 15.01 36.7702 18.83 44.5402C21.85 50.6202 24.8967 56.6903 27.97 62.7503C37.8 82.1103 47.74 101.41 57.44 120.83C68.24 142.47 78.77 164.26 89.54 185.92C99.2 205.36 108.77 224.85 118.84 244.08C126.84 259.37 116.31 277.94 100.25 279.15C87.69 280.13 75.01 279.37 62.39 279.37Z" fill="black"/>
</svg>
