<svg width="48" height="48" viewBox="0 0 48 48" fill="none" xmlns="http://www.w3.org/2000/svg">
<g clip-path="url(#clip0_1453_111)">
<path d="M29.5 12.1567C28.3739 12.1764 27.2724 12.5301 26.3068 13.1819C25.3411 13.8338 24.5453 14.7607 24 15.8692C23.4546 14.7607 22.6589 13.8338 21.6932 13.1819C20.7275 12.5301 19.626 12.1764 18.5 12.1567C16.7049 12.2445 15.0137 13.1279 13.7958 14.614C12.5778 16.1001 11.9322 18.0681 12 20.088C12 25.2034 16.786 30.7901 20.8 34.578C21.6962 35.4253 22.8293 35.8898 24 35.8898C25.1706 35.8898 26.3038 35.4253 27.2 34.578C31.214 30.7901 36 25.2034 36 20.088C36.0677 18.0681 35.4221 16.1001 34.2042 14.614C32.9863 13.1279 31.295 12.2445 29.5 12.1567Z" fill="#CE0000"/>
</g>
<defs>
<clipPath id="clip0_1453_111">
<rect width="24" height="27" fill="white" transform="translate(12 10)"/>
</clipPath>
</defs>
</svg>
