<svg width="40" height="40" viewBox="0 0 40 40" fill="none" xmlns="http://www.w3.org/2000/svg">
<g clip-path="url(#clip0_1453_117)">
<path d="M25.0421 9.91699C24.0099 9.93451 23.0002 10.2488 22.1149 10.8283C21.2297 11.4077 20.5003 12.2317 20.0004 13.217C19.5005 12.2317 18.7711 11.4077 17.8859 10.8283C17.0007 10.2488 15.991 9.93451 14.9587 9.91699C13.3133 9.99498 11.763 10.7802 10.6465 12.1012C9.53011 13.4222 8.9383 15.1715 9.00041 16.967C9.00041 21.514 13.3876 26.48 17.0671 29.847C17.8886 30.6001 18.9273 31.013 20.0004 31.013C21.0735 31.013 22.1122 30.6001 22.9337 29.847C26.6132 26.48 31.0004 21.514 31.0004 16.967C31.0625 15.1715 30.4707 13.4222 29.3543 12.1012C28.2378 10.7802 26.6875 9.99498 25.0421 9.91699Z" fill="#CE0000"/>
</g>
<defs>
<clipPath id="clip0_1453_117">
<rect width="22" height="24" fill="white" transform="translate(9 8)"/>
</clipPath>
</defs>
</svg>
