<svg width="48" height="48" viewBox="0 0 48 48" fill="none" xmlns="http://www.w3.org/2000/svg">
<g clip-path="url(#clip0_1283_139)">
<path d="M28.125 16.4377C27.2805 16.4509 26.4543 16.6866 25.7301 17.1212C25.0058 17.5558 24.409 18.1738 24 18.9127C23.591 18.1738 22.9942 17.5558 22.2699 17.1212C21.5457 16.6866 20.7195 16.4509 19.875 16.4377C18.5287 16.4962 17.2603 17.0852 16.3468 18.0759C15.4334 19.0667 14.9492 20.3786 15 21.7253C15 25.1355 18.5895 28.86 21.6 31.3853C22.2722 31.9501 23.122 32.2598 24 32.2598C24.878 32.2598 25.7278 31.9501 26.4 31.3853C29.4105 28.86 33 25.1355 33 21.7253C33.0508 20.3786 32.5666 19.0667 31.6532 18.0759C30.7397 17.0852 29.4713 16.4962 28.125 16.4377Z" fill="white"/>
</g>
<defs>
<clipPath id="clip0_1283_139">
<rect width="18" height="18" fill="white" transform="translate(15 15)"/>
</clipPath>
</defs>
</svg>
