<svg width="23" height="21" viewBox="0 0 23 21" fill="none" xmlns="http://www.w3.org/2000/svg">
<path d="M16.7755 0C15.6963 0.0167851 14.6407 0.318026 13.7153 0.873302C12.7898 1.42858 12.0273 2.21822 11.5046 3.1625C10.982 2.21822 10.2195 1.42858 9.29399 0.873302C8.36853 0.318026 7.31294 0.0167851 6.23381 0C4.51354 0.0747411 2.89277 0.827285 1.7256 2.09322C0.558421 3.35916 -0.0602882 5.03559 0.00463939 6.75625C0.00463939 11.1138 4.59122 15.8729 8.43797 19.0996C9.29685 19.8213 10.3828 20.217 11.5046 20.217C12.6265 20.217 13.7124 19.8213 14.5713 19.0996C18.4181 15.8729 23.0046 11.1138 23.0046 6.75625C23.0696 5.03559 22.4509 3.35916 21.2837 2.09322C20.1165 0.827285 18.4957 0.0747411 16.7755 0Z" fill="white"/>
</svg>
