<svg width="48" height="48" viewBox="0 0 48 48" fill="none" xmlns="http://www.w3.org/2000/svg">
<path d="M35.4583 21.7917H18.375L23.9954 16.1712C24.1555 16.0124 24.2826 15.8235 24.3694 15.6153C24.4561 15.4071 24.5007 15.1839 24.5007 14.9583C24.5007 14.7328 24.4561 14.5095 24.3694 14.3013C24.2826 14.0932 24.1555 13.9042 23.9954 13.7454C23.6753 13.4272 23.2424 13.2486 22.791 13.2486C22.3397 13.2486 21.9067 13.4272 21.5867 13.7454L14.2579 21.0912C13.6163 21.7291 13.2538 22.5953 13.25 23.5C13.2583 24.3988 13.6204 25.258 14.2579 25.8917L21.5867 33.2375C21.7459 33.3957 21.9348 33.5209 22.1425 33.6061C22.3502 33.6912 22.5726 33.7347 22.7971 33.7339C23.0215 33.7331 23.2437 33.6881 23.4507 33.6014C23.6578 33.5148 23.8458 33.3882 24.004 33.229C24.1621 33.0697 24.2874 32.8808 24.3725 32.6731C24.4577 32.4654 24.5011 32.243 24.5003 32.0185C24.4995 31.7941 24.4545 31.572 24.3679 31.3649C24.2813 31.1578 24.1547 30.9698 23.9954 30.8117L18.375 25.2083H35.4583C35.9114 25.2083 36.3459 25.0283 36.6663 24.708C36.9867 24.3876 37.1667 23.9531 37.1667 23.5C37.1667 23.0469 36.9867 22.6124 36.6663 22.292C36.3459 21.9717 35.9114 21.7917 35.4583 21.7917Z" fill="white"/>
</svg>
