<svg width="48" height="48" viewBox="0 0 48 48" fill="none" xmlns="http://www.w3.org/2000/svg">
<path d="M33.5625 29.417C34.3564 29.417 35 30.0606 35 30.8545C34.9998 31.6482 34.3563 32.292 33.5625 32.292H13.4375C12.6437 32.292 12.0002 31.6482 12 30.8545C12 30.0606 12.6436 29.417 13.4375 29.417H33.5625ZM33.5625 22.708C34.3563 22.708 34.9998 23.3517 35 24.1455C35 24.9394 34.3564 25.583 33.5625 25.583H13.4375C12.6436 25.583 12 24.9394 12 24.1455C12.0002 23.3517 12.6437 22.708 13.4375 22.708H33.5625ZM33.5625 16C34.3564 16 35 16.6436 35 17.4375C35 18.2314 34.3564 18.875 33.5625 18.875H13.4375C12.6436 18.875 12 18.2314 12 17.4375C12 16.6436 12.6436 16 13.4375 16H33.5625Z" fill="white"/>
</svg>
