<svg width="20" height="20" viewBox="0 0 20 20" fill="none" xmlns="http://www.w3.org/2000/svg">
<path d="M1.09927 10.5117L4.06757 12.75L2.94029 16.3547C2.75811 16.9137 2.7558 17.5186 2.93371 18.0791C3.11161 18.6397 3.46019 19.1258 3.9275 19.4651C4.38679 19.8153 4.94338 20.0029 5.51433 20C6.08528 19.997 6.64002 19.8037 7.0959 19.4488L9.99833 17.2431L12.9016 19.4462C13.3601 19.7944 13.9136 19.9835 14.4828 19.9863C15.0519 19.9892 15.6072 19.8057 16.069 19.4621C16.5307 19.1185 16.875 18.6326 17.0524 18.0743C17.2299 17.5159 17.2312 16.9139 17.0564 16.3547L15.9291 12.75L18.8974 10.5117C19.3553 10.166 19.6956 9.67983 19.8699 9.12251C20.0441 8.5652 20.0434 7.96528 19.8677 7.40845C19.692 6.85161 19.3503 6.36635 18.8916 6.02197C18.4328 5.67759 17.8804 5.49171 17.3132 5.49087H13.667L12.5606 1.93016C12.3866 1.36968 12.0447 0.88073 11.5842 0.533829C11.1237 0.186928 10.5684 0 9.99833 0C9.4283 0 8.87299 0.186928 8.41249 0.533829C7.95198 0.88073 7.61008 1.36968 7.43609 1.93016L6.32965 5.49087H2.68681C2.11962 5.49171 1.56719 5.67759 1.10843 6.02197C0.649667 6.36635 0.30804 6.85161 0.132344 7.40845C-0.0433522 7.96528 -0.0441299 8.5652 0.130122 9.12251C0.304374 9.67983 0.644742 10.166 1.10261 10.5117H1.09927Z" fill="#FFD15B"/>
</svg>
