<svg width="48" height="48" viewBox="0 0 48 48" fill="none" xmlns="http://www.w3.org/2000/svg">
<path d="M31.3374 26.6665C30.5821 26.6671 29.8384 26.8517 29.1703 27.2043C28.5023 27.5569 27.93 28.0669 27.5028 28.6904L21.0012 25.7515C21.463 24.6352 21.4648 23.3813 21.0062 22.2637L27.4988 19.3099C28.1319 20.2266 29.0723 20.8857 30.1493 21.1678C31.2263 21.4499 32.3687 21.3362 33.3691 20.8473C34.3696 20.3584 35.1619 19.5268 35.6023 18.5032C36.0427 17.4796 36.1021 16.3319 35.7696 15.2683C35.4372 14.2046 34.7349 13.2955 33.7903 12.7058C32.8456 12.1161 31.7211 11.8848 30.6207 12.054C29.5203 12.2232 28.517 12.7816 27.7927 13.628C27.0683 14.4743 26.671 15.5525 26.6727 16.667C26.6769 16.9308 26.7037 17.1937 26.7526 17.453L19.8505 20.5928C19.1876 19.9711 18.3578 19.5567 17.4628 19.4006C16.5679 19.2446 15.647 19.3536 14.8131 19.7143C13.9793 20.075 13.2688 20.6717 12.7691 21.4311C12.2693 22.1905 12.002 23.0795 12 23.9889C11.998 24.8982 12.2614 25.7884 12.7578 26.55C13.2542 27.3116 13.9621 27.9114 14.7943 28.2758C15.6266 28.6402 16.5471 28.7532 17.4427 28.6011C18.3382 28.449 19.1699 28.0383 19.8356 27.4194L26.7556 30.5473C26.7075 30.8063 26.6811 31.0688 26.6767 31.3322C26.6765 32.2553 26.9498 33.1577 27.4619 33.9253C27.9741 34.6929 28.7021 35.2912 29.554 35.6446C30.4058 35.9979 31.3432 36.0904 32.2475 35.9104C33.1519 35.7303 33.9826 35.2859 34.6346 34.6331C35.2866 33.9804 35.7306 33.1488 35.9105 32.2434C36.0903 31.3381 35.9979 30.3997 35.645 29.5469C35.292 28.6941 34.6944 27.9653 33.9276 27.4526C33.1608 26.9398 32.2594 26.6663 31.3374 26.6665ZM31.3374 14.0001C31.8643 13.9999 32.3794 14.1562 32.8176 14.4491C33.2558 14.742 33.5974 15.1585 33.7992 15.6457C34.001 16.133 34.0539 16.6693 33.9512 17.1867C33.8486 17.7041 33.5949 18.1793 33.2224 18.5524C32.8499 18.9255 32.3752 19.1796 31.8584 19.2825C31.3416 19.3855 30.806 19.3328 30.3191 19.131C29.8323 18.9291 29.4162 18.5873 29.1234 18.1487C28.8307 17.7102 28.6744 17.1945 28.6744 16.667C28.6749 15.96 28.9556 15.2822 29.4549 14.7822C29.9541 14.2822 30.6312 14.0009 31.3374 14.0001ZM16.6882 26.6665C16.1612 26.6667 15.6461 26.5104 15.2079 26.2175C14.7697 25.9246 14.4281 25.5082 14.2263 25.0209C14.0245 24.5336 13.9716 23.9973 14.0743 23.48C14.177 22.9626 14.4306 22.4873 14.8031 22.1142C15.1756 21.7412 15.6503 21.4871 16.1671 21.3841C16.6839 21.2811 17.2196 21.3338 17.7064 21.5357C18.1932 21.7375 18.6093 22.0793 18.9021 22.5179C19.1948 22.9565 19.3511 23.4721 19.3511 23.9996C19.3503 24.7065 19.0695 25.3842 18.5703 25.8841C18.0711 26.3841 17.3943 26.6654 16.6882 26.6665ZM31.3374 33.9991C30.8105 33.9991 30.2954 33.8427 29.8573 33.5497C29.4193 33.2566 29.0778 32.8401 28.8762 32.3528C28.6746 31.8655 28.6218 31.3293 28.7246 30.812C28.8274 30.2946 29.0811 29.8195 29.4537 29.4465C29.8262 29.0735 30.3009 28.8195 30.8176 28.7166C31.3344 28.6137 31.87 28.6665 32.3568 28.8684C32.8436 29.0702 33.2596 29.4121 33.5523 29.8506C33.8451 30.2892 34.0013 30.8048 34.0013 31.3322C34.0008 32.0394 33.7199 32.7174 33.2205 33.2174C32.721 33.7174 32.0437 33.9986 31.3374 33.9991Z" fill="white"/>
</svg>
