<svg width="40" height="40" viewBox="0 0 40 40" fill="none" xmlns="http://www.w3.org/2000/svg">
<g clip-path="url(#clip0_1283_212)">
<path d="M26.9164 22.8336C26.2548 22.8341 25.6033 22.9956 25.0181 23.3042C24.4329 23.6127 23.9315 24.059 23.5573 24.6046L17.8619 22.033C18.2664 21.0562 18.268 19.9589 17.8663 18.981L23.5538 16.3962C24.1084 17.1984 24.9322 17.7752 25.8757 18.022C26.8192 18.2688 27.8199 18.1693 28.6963 17.7415C29.5727 17.3137 30.2667 16.586 30.6525 15.6903C31.0383 14.7947 31.0903 13.7904 30.7991 12.8596C30.5079 11.9289 29.8927 11.1334 29.0652 10.6173C28.2376 10.1013 27.2526 9.89897 26.2886 10.047C25.3247 10.1951 24.4458 10.6837 23.8112 11.4243C23.1767 12.1649 22.8286 13.1084 22.8302 14.0836C22.8339 14.3144 22.8573 14.5445 22.9002 14.7713L16.8539 17.5188C16.2732 16.9748 15.5462 16.6122 14.7623 16.4756C13.9783 16.3391 13.1716 16.4345 12.4411 16.7501C11.7106 17.0658 11.0883 17.5879 10.6505 18.2524C10.2127 18.9169 9.97856 19.6948 9.97682 20.4906C9.97507 21.2863 10.2058 22.0652 10.6407 22.7317C11.0755 23.3981 11.6956 23.9229 12.4247 24.2418C13.1537 24.5607 13.9601 24.6596 14.7446 24.5265C15.5291 24.3934 16.2577 24.034 16.8408 23.4925L22.9028 26.2295C22.8607 26.4561 22.8376 26.6859 22.8337 26.9163C22.8335 27.7241 23.0729 28.5137 23.5215 29.1854C23.9702 29.8571 24.6079 30.3806 25.3541 30.6898C26.1004 30.999 26.9215 31.08 27.7137 30.9224C28.506 30.7649 29.2337 30.3759 29.8048 29.8048C30.376 29.2336 30.7649 28.5059 30.9225 27.7137C31.08 26.9215 30.9991 26.1003 30.6899 25.3541C30.3807 24.6079 29.8572 23.9701 29.1855 23.5214C28.5138 23.0728 27.7241 22.8334 26.9164 22.8336ZM26.9164 11.75C27.378 11.7498 27.8293 11.8865 28.2131 12.1428C28.597 12.3992 28.8963 12.7636 29.073 13.19C29.2498 13.6164 29.2961 14.0856 29.2062 14.5383C29.1162 14.9911 28.894 15.407 28.5677 15.7334C28.2414 16.0599 27.8256 16.2822 27.3729 16.3723C26.9202 16.4624 26.4509 16.4163 26.0244 16.2397C25.598 16.0631 25.2335 15.764 24.977 15.3802C24.7205 14.9964 24.5837 14.5452 24.5837 14.0836C24.5841 13.465 24.83 12.8718 25.2674 12.4343C25.7047 11.9968 26.2978 11.7507 26.9164 11.75ZM14.0837 22.8336C13.6221 22.8338 13.1708 22.6971 12.7869 22.4407C12.403 22.1844 12.1038 21.82 11.927 21.3936C11.7503 20.9672 11.7039 20.498 11.7939 20.0452C11.8838 19.5925 12.106 19.1766 12.4324 18.8502C12.7587 18.5237 13.1745 18.3014 13.6272 18.2113C14.0799 18.1211 14.5492 18.1673 14.9756 18.3439C15.4021 18.5205 15.7666 18.8196 16.0231 19.2034C16.2795 19.5872 16.4164 20.0384 16.4164 20.5C16.4157 21.1185 16.1697 21.7116 15.7324 22.149C15.2951 22.5865 14.7022 22.8327 14.0837 22.8336ZM26.9164 29.25C26.4549 29.25 26.0037 29.1131 25.6199 28.8567C25.2362 28.6003 24.937 28.2358 24.7604 27.8094C24.5838 27.383 24.5376 26.9138 24.6276 26.4611C24.7177 26.0084 24.9399 25.5926 25.2663 25.2662C25.5926 24.9399 26.0085 24.7176 26.4611 24.6276C26.9138 24.5375 27.383 24.5837 27.8094 24.7604C28.2359 24.937 28.6003 25.2361 28.8567 25.6199C29.1132 26.0036 29.25 26.4548 29.25 26.9163C29.2496 27.5351 29.0036 28.1284 28.566 28.566C28.1285 29.0035 27.5352 29.2495 26.9164 29.25Z" fill="black"/>
</g>
<defs>
<clipPath id="clip0_1283_212">
<rect width="21" height="21" fill="white" transform="translate(10 10)"/>
</clipPath>
</defs>
</svg>
